HIERARCHY
ROOT Pelvis
{
	OFFSET 0.000000 0.000000 0.000000
	CHANNELS 6 Xposition Yposition Zposition Xrotation Yrotation Zrotation
	JOINT LeftUpLeg_virtual
	{
		OFFSET 0.000000 0.000000 0.000000
		CHANNELS 3 Xrotation Yrotation Zrotation
		JOINT LeftUpLeg
		{
			OFFSET 18.735201 -5.666702 -4.541200
			CHANNELS 3 Xrotation Yrotation Zrotation
			JOINT LeftLeg
			{
				OFFSET -0.021200 -31.938179 0.493100
				CHANNELS 3 Xrotation Yrotation Zrotation
				JOINT LeftFoot
				{
					OFFSET 0.021200 -31.938179 -4.336299
					CHANNELS 3 Xrotation Yrotation Zrotation
					JOINT LeftToeBase
					{
						OFFSET 0.943001 -26.722000 15.023500
						CHANNELS 3 Xrotation Yrotation Zrotation
						End Site
						{
							OFFSET 0 0 0
						}
					}
				}
			}
		}
	}
	JOINT RightUpLeg_virtual
	{
		OFFSET 0.000000 0.000000 0.000000
		CHANNELS 3 Xrotation Yrotation Zrotation
		JOINT RightUpLeg
		{
			OFFSET -18.735201 -5.666702 -4.541200
			CHANNELS 3 Xrotation Yrotation Zrotation
			JOINT RightLeg
			{
				OFFSET 0.018946 -31.938133 0.493100
				CHANNELS 3 Xrotation Yrotation Zrotation
				JOINT RightFoot
				{
					OFFSET -0.018946 -31.938126 -4.336299
					CHANNELS 3 Xrotation Yrotation Zrotation
					JOINT RightToeBase
					{
						OFFSET -0.943001 -26.722004 15.023500
						CHANNELS 3 Xrotation Yrotation Zrotation
						End Site
						{
							OFFSET 0 0 0
						}
					}
				}
			}
		}
	}
	JOINT Hips_virtual
	{
		OFFSET 0.000000 0.000000 0.000000
		CHANNELS 3 Xrotation Yrotation Zrotation
		JOINT Hips
		{
			OFFSET -0.000000 -0.000000 -0.000000
			CHANNELS 3 Xrotation Yrotation Zrotation
			JOINT Spine
			{
				OFFSET 0.000000 10.199997 -0.299500
				CHANNELS 3 Xrotation Yrotation Zrotation
				JOINT Spine1
				{
					OFFSET 0.000000 11.900002 -1.516600
					CHANNELS 3 Xrotation Yrotation Zrotation
					JOINT Spine2
					{
						OFFSET 0.000000 13.600006 -2.842500
						CHANNELS 3 Xrotation Yrotation Zrotation
						JOINT Neck_virtual
						{
							OFFSET 0.000000 0.000000 0.000000
							CHANNELS 3 Xrotation Yrotation Zrotation
							JOINT Neck
							{
								OFFSET 0.000000 9.624100 -2.890100
								CHANNELS 3 Xrotation Yrotation Zrotation
								JOINT Head
								{
									OFFSET 0.000000 14.068802 -1.351900
									CHANNELS 3 Xrotation Yrotation Zrotation
									End Site
									{
										OFFSET 0 0 0
									}
								}
							}
						}
						JOINT LeftShoulder_virtual
						{
							OFFSET 0.000000 0.000000 0.000000
							CHANNELS 3 Xrotation Yrotation Zrotation
							JOINT LeftShoulder
							{
								OFFSET 15.263000 10.923401 -0.547700
								CHANNELS 3 Xrotation Yrotation Zrotation
								JOINT LeftArm
								{
									OFFSET 25.438599 -2.830597 -13.032500
									CHANNELS 3 Xrotation Yrotation Zrotation
									JOINT LeftForeArm
									{
										OFFSET 29.960503 0.000000 0.000000
										CHANNELS 3 Xrotation Yrotation Zrotation
										JOINT LeftHand
										{
											OFFSET 27.849251 0.000000 0.000000
											CHANNELS 3 Xrotation Yrotation Zrotation
											End Site
											{
												OFFSET 0 0 0
											}
										}
									}
								}
							}
						}
						JOINT RightShoulder_virtual
						{
							OFFSET 0.000000 0.000000 0.000000
							CHANNELS 3 Xrotation Yrotation Zrotation
							JOINT RightShoulder
							{
								OFFSET -15.263000 10.923401 -0.547700
								CHANNELS 3 Xrotation Yrotation Zrotation
								JOINT RightArm
								{
									OFFSET -25.438599 -2.830597 -13.032500
									CHANNELS 3 Xrotation Yrotation Zrotation
									JOINT RightForeArm
									{
										OFFSET -29.960503 0.000000 0.000000
										CHANNELS 3 Xrotation Yrotation Zrotation
										JOINT RightHand
										{
											OFFSET -27.849251 0.000000 0.000000
											CHANNELS 3 Xrotation Yrotation Zrotation
											End Site
											{
												OFFSET 0 0 0
											}
										}
									}
								}
							}
						}
					}
				}
			}
		}
	}
}
MOTION
Frames: 7
Frame Time: 0.03333333
-5.567852 89.418953 1.073124 0.000000 0.000000 0.000000 5.573087 -42.409389 6.174604 -39.489592 -1.909378 19.459991 41.292455 -6.758924 -1.177328 -10.715407 -5.383897 -13.016188 0.000000 0.000000 0.000000 16.092083 -27.015461 8.472098 -13.730712 -14.841752 -12.007916 37.106417 -5.075385 0.931430 -15.857206 -8.756179 8.521409 0.000000 0.000000 0.000000 2.654443 -17.858708 3.663398 -13.063728 -19.341436 -2.570445 4.299356 0.486349 -2.201486 3.683884 0.899864 -1.247018 0.000000 0.000000 0.000000 -2.434285 0.648816 0.376756 -2.046446 -0.211260 2.432013 0.000000 0.000000 0.000000 0.331328 1.660065 -6.121072 -6.540474 -6.040809 -10.130973 27.256582 -20.486172 -23.963447 24.711438 -37.685664 4.842065 0.000000 0.000000 0.000000 0.499855 1.880134 -2.564751 0.168168 15.700573 -20.839208 -88.424319 -3.437427 19.330706 -51.937278 33.518931 33.532329 0.000000 0.000000 0.000000 
-5.035725 89.274338 0.775137 0.000000 0.000000 0.000000 5.525330 -43.072880 6.235934 -39.677027 -2.110161 19.456004 41.145490 -6.462326 -1.444606 -10.655909 -4.990688 -13.225164 0.000000 0.000000 0.000000 15.938549 -27.630726 8.324337 -14.160158 -14.936451 -12.399561 37.383053 -4.572308 0.601903 -15.648136 -8.127078 8.371955 0.000000 0.000000 0.000000 2.385366 -19.039711 3.833966 -12.104655 -19.073802 -1.725866 4.785879 0.418931 -2.096460 3.798429 0.880499 -1.177477 0.000000 0.000000 0.000000 -2.008893 0.905132 0.375506 -1.928110 0.086681 2.344923 0.000000 0.000000 0.000000 0.470715 1.522808 -5.907284 -6.371285 -5.773268 -10.124834 27.326033 -19.799909 -24.626793 24.279376 -37.276365 4.754595 0.000000 0.000000 0.000000 0.615288 1.957632 -2.400817 -0.049705 15.606994 -19.125494 -85.398770 -3.103988 20.661225 -51.069109 37.281215 34.254676 0.000000 0.000000 0.000000 
-4.748874 89.167252 0.384266 0.000000 0.000000 0.000000 5.424496 -43.715028 6.234449 -39.917237 -2.292201 19.416657 41.008620 -6.155660 -1.706823 -10.591163 -4.589143 -13.421893 0.000000 0.000000 0.000000 15.734025 -28.223569 8.143903 -14.652325 -15.010999 -12.815140 37.640718 -4.041043 0.287146 -15.453269 -7.479184 8.265955 0.000000 0.000000 0.000000 2.150271 -20.262755 3.957277 -10.928967 -18.958215 -1.115938 5.279625 0.365106 -1.983082 3.930291 0.862029 -1.104966 0.000000 0.000000 0.000000 -1.601861 1.160700 0.381921 -1.817964 0.377269 2.264295 0.000000 0.000000 0.000000 0.645365 1.395169 -5.685607 -6.166489 -5.504788 -10.074153 27.210806 -19.144928 -25.371508 23.766669 -36.961330 4.654362 0.000000 0.000000 0.000000 0.552067 2.068817 -2.138626 -0.512401 15.610612 -16.981221 -82.661627 -2.921664 22.077530 -50.502186 40.680887 35.051308 0.000000 0.000000 0.000000 
-4.370421 88.998192 0.125046 0.000000 0.000000 0.000000 5.286722 -44.380124 6.222592 -40.189383 -2.489855 19.372889 40.951072 -5.865553 -1.944917 -10.462862 -4.221268 -13.601325 0.000000 0.000000 0.000000 15.500877 -28.861214 7.966495 -15.182033 -15.093338 -13.229208 37.885444 -3.468249 0.010504 -15.262165 -6.812719 8.247634 0.000000 0.000000 0.000000 1.942543 -21.479791 4.038317 -9.513787 -18.923278 -0.702985 5.714457 0.409212 -2.033350 4.032390 0.884744 -1.125480 0.000000 0.000000 0.000000 -1.248495 1.417804 0.386404 -1.730753 0.662693 2.185893 0.000000 0.000000 0.000000 0.810729 1.274128 -5.458624 -5.967418 -5.243643 -9.991672 26.895630 -18.449934 -26.198620 23.174437 -36.647148 4.524930 0.000000 0.000000 0.000000 0.550516 2.175610 -1.913670 -0.890720 15.591975 -15.053114 -80.210231 -2.268735 22.692728 -49.758143 43.832835 35.114153 0.000000 0.000000 0.000000 
-4.032565 88.775719 -0.034527 0.000000 0.000000 0.000000 5.117903 -44.975768 6.198485 -40.458660 -2.680678 19.327999 40.898606 -5.580201 -2.154615 -10.323575 -3.872647 -13.742974 0.000000 0.000000 0.000000 15.257405 -29.547204 7.817357 -15.724859 -15.189296 -13.613177 38.123876 -2.866631 -0.224975 -15.066670 -6.139989 8.313108 0.000000 0.000000 0.000000 1.720991 -22.756817 4.098973 -8.088202 -19.013160 -0.340524 6.095898 0.495254 -2.078480 4.099915 0.930851 -1.143765 0.000000 0.000000 0.000000 -0.912582 1.700380 0.405495 -1.647231 0.960279 2.116994 0.000000 0.000000 0.000000 0.968584 1.150465 -5.226071 -5.774243 -5.035382 -9.901548 26.458544 -17.866916 -27.003453 22.552253 -36.448574 4.422404 0.000000 0.000000 0.000000 0.598047 2.280325 -1.655938 -1.220336 15.582552 -13.039905 -78.068174 -1.255119 22.232402 -48.424426 46.462939 34.008902 0.000000 0.000000 0.000000 
-3.657964 88.554001 -0.159161 0.000000 0.000000 0.000000 4.893415 -45.512204 6.173521 -40.764376 -2.879850 19.301044 40.866699 -5.311661 -2.331431 -10.168576 -3.557878 -13.847718 0.000000 0.000000 0.000000 14.967046 -30.296206 7.656581 -16.319818 -15.292635 -14.001541 38.361044 -2.263712 -0.425015 -14.869691 -5.482165 8.435666 0.000000 0.000000 0.000000 1.500025 -24.023679 4.143852 -6.669053 -19.194324 0.030233 6.467143 0.595022 -2.094470 4.163722 0.985427 -1.150844 0.000000 0.000000 0.000000 -0.589903 1.970484 0.445246 -1.566311 1.245156 2.061518 0.000000 0.000000 0.000000 1.130999 1.037624 -4.975813 -5.567792 -4.834224 -9.728518 25.936224 -17.224055 -27.653903 21.871359 -36.202345 4.360273 0.000000 0.000000 0.000000 0.745258 2.447156 -1.263090 -1.499761 15.781401 -10.445600 -76.093334 -0.155740 21.634703 -47.123961 48.952239 32.815763 0.000000 0.000000 0.000000 
-3.171559 88.284187 -0.256546 0.000000 0.000000 0.000000 4.565494 -45.905841 6.080931 -41.123073 -3.052530 19.254669 40.787065 -5.028702 -2.473651 -10.043032 -3.245317 -13.888757 0.000000 0.000000 0.000000 14.679624 -31.018122 7.447173 -16.873192 -15.384513 -14.421215 38.578770 -1.661649 -0.609907 -14.695990 -4.831947 8.582965 0.000000 0.000000 0.000000 1.262365 -25.204800 4.165625 -5.307288 -19.299878 0.377723 6.859147 0.701574 -2.110918 4.235368 1.044635 -1.165994 0.000000 0.000000 0.000000 -0.245918 2.209592 0.489167 -1.472178 1.506555 2.012621 0.000000 0.000000 0.000000 1.299552 0.925697 -4.735278 -5.351698 -4.640314 -9.564440 25.277868 -16.554966 -28.363418 21.115344 -35.932379 4.253375 0.000000 0.000000 0.000000 0.872053 2.615077 -0.875596 -1.817157 15.963931 -7.859618 -74.258541 0.938748 20.727411 -45.619633 51.132551 31.275081 0.000000 0.000000 0.000000 
